<svg xmlns="http://www.w3.org/2000/svg" viewBox="0 0 326.02 87.06">
    <defs>
        <style>.cls-1{fill:#888888}</style>
    </defs>
    <title>Asset 1</title>
    <g id="Layer_2" data-name="Layer 2">
        <g id="Ebene_1" data-name="Ebene 1">
            <path class="cls-1" d="M40.15,49.83H17.65l-4.94,17H0L21.69,0H36.62L58.41,66.88H45.29Zm-20-9.38H37.83L29.15,9.79h-.4Z"/>
            <path class="cls-1" d="M64.05,17.15h10.8V22.9H75a20.48,20.48,0,0,1,15-7c12.1,0,19.17,10.49,19.17,25.12,0,14.32-8.07,26.93-20.68,26.93a17.82,17.82,0,0,1-12.71-5.24v23.6H64.05ZM75.76,54.07a15.32,15.32,0,0,0,9.88,4.24c7.77,0,11.5-7.57,11.5-17.15,0-9.18-3-15.64-10.59-15.64-3.63,0-7.26,2-10.79,5.75Z"/>
            <path class="cls-1" d="M116.31,17.15H127.1V22.9h.1a20.48,20.48,0,0,1,15-7c12.11,0,19.17,10.49,19.17,25.12,0,14.32-8.07,26.93-20.68,26.93A17.82,17.82,0,0,1,128,62.75v23.6h-11.7ZM128,54.07a15.32,15.32,0,0,0,9.88,4.24c7.77,0,11.5-7.57,11.5-17.15,0-9.18-3-15.64-10.59-15.64-3.63,0-7.26,2-10.79,5.75Z"/>
            <path class="cls-1" d="M211.13,41.16c1.21,5.14,2.42,10.19,3.33,15.43h.4c.81-5.24,1.82-10.39,3.13-16.64l4.84-22.8h11.5l-12.1,49.73h-15L201,40.65c-.81-3.33-1.51-7.06-2.12-10.39h-.4c-.51,3.33-1.31,7.06-2.12,10.39l-6.15,26.23h-15L163.11,17.15h11.5L179.45,40c1.32,6.25,2.32,11.4,3.13,16.64h.4c.91-5.24,2.12-10.29,3.33-15.43l5.85-24h13.12Z"/>
            <path class="cls-1" d="M257,16c12.71,0,18.46,8.07,18.46,21.59V66.88h-11V61h-.1c-4.54,4.74-9.79,7.06-15.13,7.06-8.58,0-14.33-6-14.33-14.63,0-12.61,12.81-16.54,28.65-18.36-.4-5.54-2.52-9.28-8.87-9.28-4.65,0-9.28,2.12-13.52,4.75l-2.93-8.88A35.21,35.21,0,0,1,257,16Zm-3.74,42.87c4,0,7.06-2.42,10.29-5.34v-11c-7.87,1-16.94,3.13-16.94,10C246.64,57,249.56,58.91,253.29,58.91Z"/>
            <path class="cls-1" d="M284,86.85c-1-.2-2-.5-3-.8l2.32-9.79c.51.1,1,.3,1.72.51a11.26,11.26,0,0,0,1.71.2,9.13,9.13,0,0,0,6.26-2.22A15.09,15.09,0,0,0,296.26,69l.81-2.93L277.7,17.15h12.71l8.17,23.5c.81,2.22,1.52,4.54,2.22,6.86s1.31,4.74,2,7.16h.41L305,47.61c.61-2.32,1.11-4.74,1.82-7l7.06-23.5H326L308.27,68.6a51.3,51.3,0,0,1-3.53,7.76,23.61,23.61,0,0,1-4.24,5.85A20.12,20.12,0,0,1,295,85.85a20.64,20.64,0,0,1-7.36,1.21A34.56,34.56,0,0,1,284,86.85Z"/>
        </g>
    </g>
</svg>